<svg width="144" height="40" viewBox="0 0 144 40" fill="none" xmlns="http://www.w3.org/2000/svg">
<path d="M143.561 14.8736C143.182 14.4103 142.592 14.1287 141.982 14.1287H129.159L128.759 12.639C128.527 11.773 127.728 11.1689 126.801 11.1689H124.653C124.295 11.1689 124 11.4505 124 11.7935C124 12.1356 124.294 12.418 124.653 12.418H126.801C127.117 12.418 127.39 12.6194 127.474 12.9214L130.043 22.7077C130.275 23.5737 131.075 24.1778 132.002 24.1778H140.403C141.329 24.1778 142.151 23.5737 142.361 22.7077L143.94 16.5057C144.088 15.941 143.962 15.3369 143.561 14.8736L143.561 14.8736ZM142.657 16.2225L141.077 22.4245C140.993 22.7265 140.719 22.9279 140.404 22.9279H132.002C131.686 22.9279 131.412 22.7265 131.328 22.4245L129.496 15.3976H141.983C142.194 15.3976 142.404 15.4982 142.531 15.6595C142.657 15.8199 142.719 16.0213 142.657 16.2227L142.657 16.2225Z" fill="#43464E"/>
<path d="M132.444 24.9814C131.244 24.9814 130.255 25.9276 130.255 27.0751C130.255 28.2226 131.244 29.1688 132.444 29.1688C133.644 29.1696 134.634 28.2234 134.634 27.0757C134.634 25.928 133.644 24.9812 132.444 24.9812V24.9814ZM132.444 27.9011C131.96 27.9011 131.581 27.5385 131.581 27.0752C131.581 26.6119 131.96 26.2493 132.444 26.2493C132.929 26.2493 133.308 26.6119 133.308 27.0752C133.307 27.5188 132.907 27.9011 132.444 27.9011Z" fill="#43464E"/>
<path d="M139.688 24.9814C138.487 24.9814 137.498 25.9277 137.498 27.0752C137.498 28.2226 138.488 29.1689 139.688 29.1689C140.888 29.1689 141.877 28.2226 141.877 27.0752C141.856 25.9284 140.888 24.9814 139.688 24.9814ZM139.688 27.9011C139.203 27.9011 138.824 27.5385 138.824 27.0752C138.824 26.612 139.203 26.2493 139.688 26.2493C140.172 26.2493 140.551 26.612 140.551 27.0752C140.551 27.5188 140.151 27.9011 139.688 27.9011Z" fill="#43464E"/>
</svg>
